<svg width="24" height="24" viewBox="0 0 24 24" fill="none" xmlns="http://www.w3.org/2000/svg">
<path d="M12.0074 7.19249C9.34728 7.19249 7.2004 9.33937 7.2004 11.9995C7.2004 14.6597 9.34728 16.8066 12.0074 16.8066C14.6676 16.8066 16.8145 14.6597 16.8145 11.9995C16.8145 9.33937 14.6676 7.19249 12.0074 7.19249ZM12.0074 15.1237C10.2871 15.1237 8.88322 13.7198 8.88322 11.9995C8.88322 10.2792 10.2871 8.87531 12.0074 8.87531C13.7277 8.87531 15.1317 10.2792 15.1317 11.9995C15.1317 13.7198 13.7277 15.1237 12.0074 15.1237ZM17.0113 5.87531C16.3902 5.87531 15.8887 6.37687 15.8887 6.99796C15.8887 7.61906 16.3902 8.12062 17.0113 8.12062C17.6324 8.12062 18.134 7.6214 18.134 6.99796C18.1342 6.85048 18.1053 6.70441 18.0489 6.56812C17.9926 6.43183 17.9099 6.308 17.8056 6.20371C17.7013 6.09943 17.5775 6.01674 17.4412 5.96039C17.3049 5.90403 17.1588 5.87512 17.0113 5.87531ZM21.3777 11.9995C21.3777 10.7058 21.3895 9.42374 21.3168 8.13234C21.2442 6.63234 20.902 5.30109 19.8051 4.20421C18.7059 3.10499 17.377 2.76515 15.877 2.69249C14.5832 2.61984 13.3012 2.63156 12.0098 2.63156C10.716 2.63156 9.434 2.61984 8.14259 2.69249C6.64259 2.76515 5.31134 3.10734 4.21447 4.20421C3.11525 5.30343 2.7754 6.63234 2.70275 8.13234C2.63009 9.42609 2.64181 10.7081 2.64181 11.9995C2.64181 13.2909 2.63009 14.5753 2.70275 15.8667C2.7754 17.3667 3.11759 18.698 4.21447 19.7948C5.31369 20.8941 6.64259 21.2339 8.14259 21.3066C9.43634 21.3792 10.7184 21.3675 12.0098 21.3675C13.3035 21.3675 14.5856 21.3792 15.877 21.3066C17.377 21.2339 18.7082 20.8917 19.8051 19.7948C20.9043 18.6956 21.2442 17.3667 21.3168 15.8667C21.3918 14.5753 21.3777 13.2933 21.3777 11.9995ZM19.3152 17.5261C19.1442 17.9527 18.9379 18.2714 18.6074 18.5995C18.277 18.93 17.9606 19.1362 17.534 19.3073C16.3012 19.7972 13.3738 19.687 12.0074 19.687C10.641 19.687 7.71134 19.7972 6.47853 19.3097C6.05197 19.1386 5.73322 18.9323 5.40509 18.6019C5.07462 18.2714 4.86837 17.955 4.69728 17.5284C4.20978 16.2933 4.31994 13.3659 4.31994 11.9995C4.31994 10.6331 4.20978 7.70343 4.69728 6.47062C4.86837 6.04406 5.07462 5.72531 5.40509 5.39718C5.73556 5.06906 6.05197 4.86046 6.47853 4.68937C7.71134 4.20187 10.641 4.31203 12.0074 4.31203C13.3738 4.31203 16.3035 4.20187 17.5363 4.68937C17.9629 4.86046 18.2817 5.06671 18.6098 5.39718C18.9402 5.72765 19.1465 6.04406 19.3176 6.47062C19.8051 7.70343 19.6949 10.6331 19.6949 11.9995C19.6949 13.3659 19.8051 16.2933 19.3152 17.5261Z" fill="white"/>
</svg>
