<svg width="24" height="24" viewBox="0 0 24 24" fill="none" xmlns="http://www.w3.org/2000/svg">
<path d="M17.6642 16.6569C16.7276 17.5935 14.7689 19.5521 13.4211 20.8999C12.6401 21.681 11.375 21.6814 10.594 20.9003C9.26967 19.576 7.34892 17.6553 6.35047 16.6569C3.22628 13.5327 3.22628 8.46734 6.35047 5.34315C9.47466 2.21895 14.54 2.21895 17.6642 5.34315C20.7884 8.46734 20.7884 13.5327 17.6642 16.6569Z" stroke="white" stroke-linecap="round" stroke-linejoin="round"/>
<path d="M15.0073 11C15.0073 12.6569 13.6642 14 12.0073 14C10.3505 14 9.00732 12.6569 9.00732 11C9.00732 9.34315 10.3505 8 12.0073 8C13.6642 8 15.0073 9.34315 15.0073 11Z" stroke="white" stroke-linecap="round" stroke-linejoin="round"/>
</svg>
