<svg width="24" height="24" viewBox="0 0 24 24" fill="none" xmlns="http://www.w3.org/2000/svg">
<path d="M17.0073 17H19.0073C20.1119 17 21.0073 16.1046 21.0073 15V11C21.0073 9.89543 20.1119 9 19.0073 9H5.00732C3.90275 9 3.00732 9.89543 3.00732 11V15C3.00732 16.1046 3.90275 17 5.00732 17H7.00732M9.00732 21H15.0073C16.1119 21 17.0073 20.1046 17.0073 19V15C17.0073 13.8954 16.1119 13 15.0073 13H9.00732C7.90275 13 7.00732 13.8954 7.00732 15V19C7.00732 20.1046 7.90275 21 9.00732 21ZM17.0073 9V5C17.0073 3.89543 16.1119 3 15.0073 3H9.00732C7.90275 3 7.00732 3.89543 7.00732 5V9H17.0073Z" stroke="white" stroke-linecap="round" stroke-linejoin="round"/>
</svg>
