<svg width="24" height="24" viewBox="0 0 24 24" fill="none" xmlns="http://www.w3.org/2000/svg">
<path d="M3.00732 5C3.00732 3.89543 3.90275 3 5.00732 3H8.28656C8.717 3 9.09913 3.27543 9.23525 3.68377L10.7331 8.17721C10.8904 8.64932 10.6767 9.16531 10.2316 9.38787L7.97433 10.5165C9.07657 12.9612 11.0461 14.9308 13.4908 16.033L14.6195 13.7757C14.842 13.3306 15.358 13.1169 15.8301 13.2743L20.3236 14.7721C20.7319 14.9082 21.0073 15.2903 21.0073 15.7208V19C21.0073 20.1046 20.1119 21 19.0073 21H18.0073C9.72305 21 3.00732 14.2843 3.00732 6V5Z" stroke="white" stroke-linecap="round" stroke-linejoin="round"/>
</svg>
