<svg width="40" height="40" viewBox="0 0 40 40" fill="none" xmlns="http://www.w3.org/2000/svg">
<g clip-path="url(#clip0_197_166)">
<path d="M29 20C29 24.9706 24.9706 29 20 29M29 20C29 15.0294 24.9706 11 20 11M29 20H11M20 29C15.0294 29 11 24.9706 11 20M20 29C21.6569 29 23 24.9706 23 20C23 15.0294 21.6569 11 20 11M20 29C18.3431 29 17 24.9706 17 20C17 15.0294 18.3431 11 20 11M20 11C15.0294 11 11 15.0294 11 20" stroke="white" stroke-width="1.5" stroke-linecap="round" stroke-linejoin="round"/>
</g>
<defs>
<clipPath id="clip0_197_166">
<rect width="40" height="40" fill="white"/>
</clipPath>
</defs>
</svg>
