<svg width="24" height="24" viewBox="0 0 24 24" fill="none" xmlns="http://www.w3.org/2000/svg">
<path d="M21.7572 5.96017C21.04 6.26954 20.2596 6.4922 19.4557 6.57892C20.2903 6.08306 20.9153 5.2997 21.2135 4.37579C20.4303 4.8417 19.5723 5.16841 18.6775 5.34142C18.3036 4.94163 17.8513 4.62315 17.3489 4.40581C16.8464 4.18847 16.3046 4.07693 15.7572 4.07813C13.5424 4.07813 11.7611 5.87345 11.7611 8.07657C11.7611 8.38595 11.7986 8.69532 11.8596 8.99298C8.54316 8.81954 5.58535 7.23517 3.61895 4.80938C3.26065 5.42137 3.07288 6.1182 3.0752 6.82735C3.0752 8.21485 3.78066 9.43829 4.85644 10.1578C4.22247 10.1329 3.60334 9.9586 3.04941 9.64923V9.69845C3.04941 11.6414 4.42285 13.2516 6.25332 13.6219C5.90963 13.7112 5.55607 13.7568 5.20098 13.7578C4.94082 13.7578 4.69473 13.732 4.44629 13.6969C4.95254 15.2813 6.42676 16.432 8.18223 16.4695C6.80879 17.5453 5.08848 18.1781 3.22051 18.1781C2.88535 18.1781 2.57598 18.1664 2.25488 18.1289C4.02676 19.2656 6.1291 19.9219 8.39316 19.9219C15.7432 19.9219 19.765 13.8328 19.765 8.54767C19.765 8.37423 19.765 8.20079 19.7533 8.02735C20.5314 7.45782 21.2135 6.75235 21.7572 5.96017Z" fill="white"/>
</svg>
